<svg id="图层_1" data-name="图层 1" xmlns="http://www.w3.org/2000/svg" viewBox="0 0 1180 423"><defs><style>.cls-1{fill:#1890ff;}.cls-2{fill:#e71a1e;}.cls-3{fill:#8ac620;}</style></defs><title>logo AI文件</title><path class="cls-1" d="M954.43,132.29l-18.36,50.43a18.41,18.41,0,0,1-17.3,12.12H903.26L926,132.29Z"/><polygon class="cls-1" points="1058.94 97.92 1040.58 148.39 1012.17 148.39 1030.54 97.92 1058.94 97.92"/><rect class="cls-1" x="948.26" y="180.34" width="153.86" height="28.4"/><rect class="cls-1" x="930.54" y="341.49" width="180.21" height="28.4"/><rect class="cls-1" x="948.26" y="229.59" width="141.46" height="28.4"/><rect class="cls-1" x="923.63" y="204.97" width="77.66" height="28.4" transform="translate(743.29 1181.63) rotate(-90)"/><rect class="cls-1" x="897.35" y="308.32" width="94.79" height="28.4" transform="translate(622.22 1267.27) rotate(-90)"/><path class="cls-1" d="M1074.56,308.31h94.77a0,0,0,0,1,0,0v14.23a14.17,14.17,0,0,1-14.17,14.17h-57.91A22.68,22.68,0,0,1,1074.56,314v-5.73A0,0,0,0,1,1074.56,308.31Z" transform="translate(799.43 1444.45) rotate(-90)"/><path class="cls-1" d="M1063.28,205h77.66a0,0,0,0,1,0,0V219.2a14.17,14.17,0,0,1-14.17,14.17H1086a22.68,22.68,0,0,1-22.68-22.68V205A0,0,0,0,1,1063.28,205Z" transform="translate(882.95 1321.28) rotate(-90)"/><rect class="cls-1" x="1120.63" y="159.5" width="42.27" height="28.4" transform="translate(968.06 1315.46) rotate(-90)"/><polygon class="cls-1" points="1046.44 132.29 934.16 132.29 934.16 160.69 1036.1 160.69 1046.44 132.29"/><path class="cls-1" d="M1137.58,132.29h-79.27L1048,160.69h108v-10A18.42,18.42,0,0,0,1137.58,132.29Z"/><polygon class="cls-1" points="981.85 275.13 930.54 275.13 930.54 303.53 971.51 303.53 981.85 275.13"/><polygon class="cls-1" points="993.72 275.13 983.38 303.53 1108.66 303.53 1108.66 275.13 993.72 275.13"/><polygon class="cls-1" points="724.76 250.16 768.35 369.92 796.75 369.92 753.16 250.16 724.76 250.16"/><polygon class="cls-1" points="731.49 130.99 644.53 369.92 616.12 369.92 703.09 130.99 731.49 130.99"/><path class="cls-1" d="M645,290.38l-15,41.14s-5.31,13.31-19.29,13.3H598.4l-10.34,25.1h56.43l28.31-77.79Z"/><polygon class="cls-1" points="735.39 120.28 598.64 120.28 588.3 148.68 725.05 148.68 735.39 120.28"/><path class="cls-1" d="M814,120.28H747.26l-10.34,28.4h83.15l4.72-13A11.51,11.51,0,0,0,814,120.28Z"/><path class="cls-1" d="M826.1,208.74H674.78l-10.33,28.41H832.2l4.72-13A11.51,11.51,0,0,0,826.1,208.74Z"/><polygon class="cls-1" points="662.92 208.74 588.52 208.74 578.19 237.15 652.58 237.15 662.92 208.74"/><path class="cls-1" d="M305,221.2c56.71,14,95.55,42.41,95.55,75.24,0,46.62-78.31,84.42-174.93,84.42S50.67,343.06,50.67,296.44c0-32.83,38.85-61.28,95.56-75.24C76.54,235.81,27.86,269.06,27.86,307.75c0,52.17,88.53,94.47,197.74,94.47s197.75-42.3,197.75-94.47C423.35,269.06,374.67,235.81,305,221.2Z"/><polygon class="cls-1" points="174.11 365.17 161.5 365.17 214.32 65.61 226.93 65.61 174.11 365.17"/><polygon class="cls-1" points="197.76 365.17 185.15 365.17 237.97 65.61 250.58 65.61 197.76 365.17"/><polygon class="cls-1" points="221.41 365.17 208.8 365.17 261.62 65.61 274.23 65.61 221.41 365.17"/><polygon class="cls-1" points="245.06 365.17 232.44 365.17 285.27 65.61 297.88 65.61 245.06 365.17"/><polygon class="cls-2" points="115.75 155.27 102.35 155.27 118.16 65.61 131.56 65.61 115.75 155.27"/><polygon class="cls-2" points="139.4 155.27 126 155.27 141.81 65.61 155.21 65.61 139.4 155.27"/><polygon class="cls-2" points="163.05 155.27 149.65 155.27 165.46 65.61 178.86 65.61 163.05 155.27"/><polygon class="cls-2" points="186.7 155.27 173.3 155.27 189.11 65.61 202.51 65.61 186.7 155.27"/><polygon class="cls-3" points="306.21 155.27 292.81 155.27 308.61 65.61 322.01 65.61 306.21 155.27"/><polygon class="cls-3" points="329.86 155.27 316.45 155.27 332.26 65.61 345.67 65.61 329.86 155.27"/><polygon class="cls-3" points="353.51 155.27 340.1 155.27 355.91 65.61 369.31 65.61 353.51 155.27"/><polygon class="cls-3" points="377.15 155.27 363.75 155.27 379.56 65.61 392.96 65.61 377.15 155.27"/></svg>