<svg id="图层_1" data-name="图层 1" xmlns="http://www.w3.org/2000/svg" viewBox="0 0 395.49 336.61"><defs><style>.cls-1{fill:#fff;}</style></defs><title>火箭</title><path class="cls-1" d="M277.12,155.58c56.72,14,95.56,42.42,95.56,75.25,0,46.62-78.32,84.42-174.93,84.42S22.82,277.45,22.82,230.83c0-32.83,38.84-61.29,95.55-75.25C48.68,170.19,0,203.44,0,242.13c0,52.18,88.53,94.48,197.75,94.48s197.74-42.3,197.74-94.48C395.49,203.44,346.81,170.19,277.12,155.58Z"/><polygon class="cls-1" points="146.25 299.56 133.64 299.56 186.46 0 199.07 0 146.25 299.56"/><polygon class="cls-1" points="169.9 299.56 157.29 299.56 210.11 0 222.72 0 169.9 299.56"/><polygon class="cls-1" points="193.55 299.56 180.94 299.56 233.76 0 246.37 0 193.55 299.56"/><polygon class="cls-1" points="217.2 299.56 204.59 299.56 257.41 0 270.02 0 217.2 299.56"/><polygon class="cls-1" points="87.89 89.66 74.49 89.66 90.3 0 103.7 0 87.89 89.66"/><polygon class="cls-1" points="111.55 89.66 98.14 89.66 113.95 0 127.35 0 111.55 89.66"/><polygon class="cls-1" points="135.19 89.66 121.79 89.66 137.6 0 151 0 135.19 89.66"/><polygon class="cls-1" points="158.84 89.66 145.44 89.66 161.25 0 174.65 0 158.84 89.66"/><polygon class="cls-1" points="278.35 89.66 264.95 89.66 280.76 0 294.16 0 278.35 89.66"/><polygon class="cls-1" points="302 89.66 288.6 89.66 304.41 0 317.81 0 302 89.66"/><polygon class="cls-1" points="325.65 89.66 312.25 89.66 328.06 0 341.46 0 325.65 89.66"/><polygon class="cls-1" points="349.3 89.66 335.9 89.66 351.7 0 365.11 0 349.3 89.66"/></svg>